<?xml version="1.0" encoding="utf-8"?>
<svg viewBox="0 0 48 48" xmlns="http://www.w3.org/2000/svg" xmlns:xlink="http://www.w3.org/1999/xlink">
  <defs>
    <linearGradient gradientUnits="userSpaceOnUse" x1="24" y1="1" x2="24" y2="47" id="gradient-0-0" spreadMethod="pad" xlink:href="#gradient-0"/>
    <linearGradient id="gradient-0">
      <stop offset="0" style="stop-color: rgb(66, 184, 131);"/>
      <stop offset="1" style="stop-color: rgb(53, 73, 94);"/>
    </linearGradient>
  </defs>
  <rect x="8" y="1" width="32" height="46" rx="3.5" ry="3.5" style="paint-order: fill; stroke-miterlimit: 5.03; fill-rule: nonzero; fill: url('#gradient-0-0');"/>
  <rect x="10" y="3" width="28" height="42" rx="2" ry="2" style="fill: rgb(255, 255, 255);"/>
  <g transform="matrix(1.1273750066757202, 0, 0, 1.1273750066757202, -6.8706889152526855, 0.5)" style="">
    <title>vue_logo</title>
    <path fill="#42b883" d="M 32.816 4.407 L 31.251 7.116 L 29.687 4.407 L 24.477 4.407 L 31.251 16.141 L 38.027 4.407 L 32.816 4.407 Z" style=""/>
    <path fill="#35495e" d="M 32.816 4.407 L 31.251 7.116 L 29.687 4.407 L 27.187 4.407 L 31.251 11.447 L 35.317 4.407 L 32.816 4.407 Z" style=""/>
  </g>
  <rect x="11" width="14.574" height="1" style="fill: rgb(53, 73, 94);" y="20"/>
  <rect x="11" width="26" height="1" style="fill: rgb(53, 73, 94);" y="23"/>
  <rect x="11" width="20" height="1" style="fill: rgb(53, 73, 94);" y="26"/>
  <rect x="11" width="26" height="1" style="fill: rgb(53, 73, 94);" y="29"/>
  <rect x="11" width="26" height="1" style="fill: rgb(53, 73, 94);" y="32"/>
  <rect x="11" width="18" height="1" style="fill: rgb(53, 73, 94);" y="35"/>
  <rect x="11" width="24" height="1" style="fill: rgb(53, 73, 94);" y="38"/>
  <rect x="11" width="26" height="1" style="fill: rgb(53, 73, 94);" y="41"/>
  <path d="M 11.38 18 L 11.38 14.51 L 12.63 14.51 Q 13.04 14.51 13.3 14.66 Q 13.57 14.81 13.7 15.06 Q 13.84 15.32 13.84 15.64 Q 13.84 15.96 13.7 16.22 Q 13.57 16.47 13.3 16.62 Q 13.03 16.77 12.63 16.77 L 11.77 16.77 L 11.77 16.33 L 12.58 16.33 Q 12.84 16.33 13 16.24 Q 13.16 16.15 13.23 15.99 Q 13.31 15.84 13.31 15.64 Q 13.31 15.44 13.23 15.29 Q 13.16 15.13 13 15.05 Q 12.83 14.96 12.57 14.96 L 11.91 14.96 L 11.91 18 Z M 15.51 18 L 14.38 18 L 14.38 14.51 L 15.55 14.51 Q 16.06 14.51 16.43 14.72 Q 16.8 14.93 17 15.32 Q 17.19 15.71 17.19 16.25 Q 17.19 16.79 16.99 17.19 Q 16.8 17.58 16.42 17.79 Q 16.05 18 15.51 18 Z M 14.91 17.54 L 15.48 17.54 Q 15.88 17.54 16.15 17.39 Q 16.41 17.24 16.54 16.95 Q 16.67 16.66 16.67 16.25 Q 16.67 15.84 16.54 15.55 Q 16.41 15.27 16.16 15.12 Q 15.9 14.97 15.52 14.97 L 14.91 14.97 Z M 17.38 18 L 17.38 14.51 L 19.55 14.51 L 19.55 14.96 L 17.91 14.96 L 17.91 16.03 L 19.39 16.03 L 19.39 16.48 L 17.91 16.48 L 17.91 18 Z M 20.68 18.03 Q 20.54 18.03 20.44 17.93 Q 20.34 17.83 20.34 17.69 Q 20.34 17.55 20.44 17.45 Q 20.54 17.35 20.68 17.35 Q 20.82 17.35 20.92 17.45 Q 21.02 17.55 21.02 17.69 Q 21.02 17.79 20.97 17.86 Q 20.93 17.94 20.85 17.99 Q 20.77 18.03 20.68 18.03 Z M 21.84 15.38 L 22.35 15.38 L 22.35 18.17 Q 22.35 18.43 22.26 18.61 Q 22.16 18.79 21.98 18.89 Q 21.79 18.98 21.52 18.98 Q 21.49 18.98 21.47 18.98 Q 21.45 18.98 21.42 18.98 L 21.42 18.54 Q 21.44 18.54 21.46 18.54 Q 21.48 18.54 21.5 18.54 Q 21.68 18.54 21.76 18.45 Q 21.84 18.35 21.84 18.17 Z M 22.09 14.98 Q 21.96 14.98 21.87 14.89 Q 21.77 14.8 21.77 14.67 Q 21.77 14.55 21.87 14.46 Q 21.96 14.37 22.09 14.37 Q 22.23 14.37 22.32 14.46 Q 22.42 14.55 22.42 14.67 Q 22.42 14.8 22.32 14.89 Q 22.23 14.98 22.09 14.98 Z M 24.55 16.02 L 24.09 16.1 Q 24.06 16.01 24 15.93 Q 23.94 15.85 23.83 15.8 Q 23.73 15.75 23.57 15.75 Q 23.35 15.75 23.21 15.85 Q 23.06 15.94 23.06 16.1 Q 23.06 16.23 23.16 16.31 Q 23.26 16.39 23.47 16.44 L 23.89 16.53 Q 24.25 16.62 24.43 16.79 Q 24.61 16.97 24.61 17.24 Q 24.61 17.48 24.47 17.66 Q 24.33 17.84 24.09 17.95 Q 23.85 18.05 23.54 18.05 Q 23.1 18.05 22.82 17.86 Q 22.54 17.68 22.48 17.33 L 22.97 17.25 Q 23.02 17.45 23.16 17.54 Q 23.3 17.64 23.53 17.64 Q 23.78 17.64 23.93 17.54 Q 24.08 17.43 24.08 17.28 Q 24.08 17.16 23.99 17.07 Q 23.9 16.99 23.71 16.95 L 23.27 16.85 Q 22.9 16.77 22.73 16.59 Q 22.55 16.4 22.55 16.12 Q 22.55 15.89 22.68 15.72 Q 22.81 15.54 23.04 15.45 Q 23.27 15.35 23.56 15.35 Q 23.99 15.35 24.23 15.53 Q 24.48 15.71 24.55 16.02 Z" style="fill: rgb(53, 73, 94); text-wrap-mode: nowrap;"/>
</svg>